<?xml version="1.0" encoding="utf-8"?>
<!-- Generator: Adobe Illustrator 26.0.1, SVG Export Plug-In . SVG Version: 6.00 Build 0)  -->
<svg version="1.1" id="Layer_1" xmlns="http://www.w3.org/2000/svg" xmlns:xlink="http://www.w3.org/1999/xlink" x="0px" y="0px"
	 viewBox="0 0 841.89 595.28" style="enable-background:new 0 0 841.89 595.28;" xml:space="preserve">
<style type="text/css">
	.st0{stroke:#000000;stroke-width:2;stroke-miterlimit:10;}
	.st1{fill:#146299;}
	.st2{fill:#CD2A29;}
	.st3{fill:#FFFFFF;}
	.st4{fill:none;}
</style>
<g>
	<path class="st0" d="M613.4,37.39l-3.67-4.27l-5.16,2.23c-0.3,0.13-31.1,13.17-82.47,12.83c-31.69-0.21-64.55-5.38-97.65-15.38
		l-2.16-0.65l-2.15,0.62c-33.23,9.56-66.16,14.29-97.84,14.08c-51.37-0.34-81.99-13.79-82.3-13.93l-5.13-2.31l-3.73,4.24
		c-81.71,93.39-85.21,190.57-73.75,255.65c6.75,38.32,20.87,77.14,40.85,112.27c18.46,32.45,41.54,61.34,66.76,83.57
		c66.98,59,148.72,77.25,152.18,78l1.57,0.33l1.56-0.31c3.46-0.71,85.44-17.86,153.2-75.97c25.51-21.89,48.99-50.48,67.87-82.68
		c20.47-34.86,35.1-73.49,42.34-111.71C696.07,229.07,693.86,131.86,613.4,37.39z M568.56,482.6
		c-67.06,57.51-149.18,74.18-149.74,74.28l0,0l-0.02,0l0,0l0,0c-0.57-0.11-82.47-17.87-148.73-76.27
		c-95.28-83.9-174.12-279.66-33.18-440.74c0,0,72.31,32.71,185.35,0.24v0l0,0l0.02,0v0c112.6,33.97,185.35,2.23,185.35,2.23
		C746.38,205.28,664.93,399.98,568.56,482.6z"/>
	<g>
		<g>
			<path class="st1" d="M196.37,383.14l447.18,2.97c26.11-50.13,42-109.9,37.31-172.03l-519.5-3.46
				C155.85,272.7,170.95,332.67,196.37,383.14z"/>
			<path class="st2" d="M422.25,40.11L422.25,40.11L422.25,40.11L422.25,40.11h-0.02c-113.03,32.47-185.35-0.24-185.35-0.24
				c-47.97,54.83-70.47,113.68-75.53,170.76l519.5,3.46c-4.29-57.14-26.01-116.29-73.25-171.75
				C607.6,42.34,534.85,74.08,422.25,40.11z"/>
			<path class="st3" d="M270.07,480.61c66.28,58.4,148.17,76.16,148.73,76.27l0,0l0.02,0l0,0l0,0c0.57-0.1,82.68-16.76,149.74-74.28
				c27.91-23.92,54.57-57.25,74.99-96.49l-447.18-2.97C216.27,422.65,242.48,456.33,270.07,480.61z"/>
		</g>
		<g>
			<path class="st3" d="M463.33,244.28c-0.3,0.71-0.64,1.38-1.05,2.04c0.57,0.77,0.88,1.56,1.07,2.23
				c1.67,6.61-7.01,16.36-7.99,17.45c-7.47,8.18-16.38,14.87-26.5,19.87c-10.9,5.37-22.63,8.51-34.91,9.3
				c-2.62,0.18-5.29,0.26-7.9,0.24c-13.71-0.09-26.89-2.79-39.17-8.04c-10.36-4.42-19.84-10.49-28.19-18.08
				c-14.04-12.78-22.68-29-27.18-51.03c-5.69-30.43,1.68-60.7,20.74-85.24c18.49-23.81,46.18-39.1,74.01-40.91
				c3.02-0.2,6.08-0.29,9.07-0.27c22.38,0.15,43.78,6.43,58.69,17.22c2.88,2.08,7.91,6.38,9.48,11.95
				c1.4,5.07,2.28,26.22-1.93,33.03c-0.33,0.52-0.69,0.97-1.09,1.34c0.4,0.58,0.81,1.16,1.21,1.75c0.57-0.49,1.14-1.14,1.67-1.97
				c4.77-7.7,3.61-29.51,2.16-34.7c-1.73-6.19-7.15-10.87-10.25-13.11c-15.27-11.05-37.11-17.47-59.93-17.62
				c-3.05-0.02-6.15,0.07-9.21,0.27c-28.45,1.84-56.7,17.45-75.56,41.73c-19.44,25.03-26.96,55.9-21.14,86.96
				c4.59,22.49,13.44,39.08,27.83,52.16c8.52,7.75,18.2,13.97,28.77,18.46c12.55,5.36,26,8.12,40,8.21
				c2.66,0.02,5.37-0.06,8.07-0.23c12.53-0.83,24.54-4.03,35.69-9.52c10.35-5.13,19.49-11.96,27.13-20.34
				c1.74-1.93,10.38-11.89,8.47-19.4C465.05,246.61,464.33,245.33,463.33,244.28z"/>
			<path class="st3" d="M458.28,156.56c-0.4,0.07-0.82,0.11-1.24,0.11c-6.55-0.05-11.47-9.6-16.36-20.22
				c-1.02-2.21-1.97-4.3-2.5-5.05c-8.03-11.48-24.44-20.34-39.92-21.55c-1.83-0.14-3.65-0.22-5.41-0.23
				c-22.06-0.14-35.76,10.28-44.14,18.14c-10.85,10.14-18.69,22.43-23.32,36.51c-5.18,15.71-6.13,33.21-2.86,52.01
				c6.97,34.55,27.69,55.84,56.82,58.47c2.85,0.26,5.69,0.41,8.43,0.42c20.65,0.12,38.09-6.68,51.8-20.23
				c0.34-0.32,0.68-0.67,1.06-1.04c4.17-4.18,10.47-10.47,15.9-10.43c0.72,0,1.44,0.11,2.09,0.34c1.78,0.62,2.9,1.55,3.63,2.52
				c0.4-0.67,0.75-1.34,1.05-2.04c-1.06-1.07-2.39-1.91-4-2.47c-0.87-0.31-1.81-0.47-2.77-0.47c-6.31-0.04-12.97,6.64-17.4,11.06
				l-0.08,0.06c-0.33,0.35-0.67,0.68-0.97,0.98c-13.32,13.14-30.25,19.73-50.31,19.6c-2.67-0.02-5.46-0.15-8.26-0.4
				c-28.12-2.53-48.14-23.23-54.92-56.77c-3.2-18.44-2.27-35.58,2.78-50.96c4.53-13.72,12.16-25.72,22.75-35.62
				c8.11-7.61,21.38-17.7,42.69-17.56c1.72,0.01,3.48,0.09,5.26,0.23c14.89,1.16,30.66,9.65,38.35,20.63
				c0.42,0.61,1.47,2.9,2.31,4.74c5.18,11.27,10.47,21.39,18.27,21.44c0.56,0.01,1.12-0.05,1.64-0.15c0.86-0.16,1.95-0.56,3.03-1.49
				c-0.4-0.58-0.81-1.16-1.21-1.75C459.84,156.01,459.11,156.4,458.28,156.56z"/>
		</g>
		<path class="st3" d="M461.16,245.17c-0.77,0.3-1.52,0.66-2.29,1.04c7.46,3.78-3.43,16.57-5.07,18.38
			c-14,15.35-34.99,26.84-59.96,28.48c-32.82,2.14-57.77-10.85-73.7-25.34c-13.74-12.5-22.09-28.08-26.54-49.87
			c-12.2-65.2,38.46-120.09,92.84-123.63c25.76-1.68,50.04,4.74,66.37,16.56c3.52,2.55,7.43,6.42,8.66,10.81
			c1.51,5.41,2,27.89-2.37,32.2c0.44,0.6,0.84,1.17,1.2,1.77c0.46-0.4,0.89-0.91,1.29-1.52c4.21-6.81,3.34-27.96,1.93-33.03
			c-1.56-5.57-6.6-9.87-9.48-11.95c-14.91-10.8-36.31-17.07-58.69-17.22c-3-0.02-6.05,0.07-9.07,0.27
			c-27.84,1.81-55.52,17.1-74.01,40.91c-19.06,24.54-26.43,54.81-20.74,85.24c4.5,22.03,13.14,38.25,27.18,51.03
			c8.34,7.58,17.83,13.66,28.19,18.08c12.28,5.24,25.46,7.95,39.17,8.04c2.62,0.02,5.28-0.06,7.9-0.24
			c12.29-0.79,24.01-3.93,34.91-9.3c10.12-5,19.02-11.69,26.5-19.87c0.98-1.09,9.66-10.84,7.99-17.45
			C463.09,247.52,462.49,246.25,461.16,245.17z"/>
		<path class="st3" d="M457.89,154.47c-8.02,1.53-15.35-20.55-17.97-24.3c-8.67-12.38-25.97-21.22-41.5-22.43
			c-24.07-1.88-39.53,7.59-51.15,18.47c-20.87,19.54-33.85,50.02-26.79,90.48c6.34,31.43,25.32,57.16,58.7,60.16
			c29.15,2.62,48.54-7.21,61.92-20.4c4.04-3.98,11.83-12.38,16.86-10.63c0.34,0.12,0.64,0.25,0.92,0.4
			c0.77-0.38,1.52-0.74,2.29-1.04c-0.64-0.53-1.46-1-2.51-1.37c-0.65-0.23-1.37-0.34-2.09-0.34c-5.43-0.04-11.73,6.25-15.9,10.43
			c-0.38,0.37-0.72,0.72-1.06,1.04c-13.71,13.56-31.15,20.36-51.8,20.23c-2.74-0.02-5.58-0.17-8.43-0.42
			c-29.12-2.63-49.85-23.92-56.82-58.47c-3.28-18.8-2.32-36.3,2.86-52.01c4.63-14.08,12.47-26.37,23.32-36.51
			c8.38-7.86,22.08-18.28,44.14-18.14c1.77,0.01,3.58,0.09,5.41,0.23c15.47,1.21,31.89,10.07,39.92,21.55
			c0.52,0.75,1.48,2.84,2.5,5.05c4.89,10.62,9.81,20.18,16.36,20.22c0.43,0,0.84-0.04,1.24-0.11c0.74-0.14,1.4-0.48,2.01-0.99
			c-0.36-0.6-0.76-1.18-1.2-1.77C458.73,154.15,458.33,154.39,457.89,154.47z"/>
		<path class="st3" d="M461.32,452.58c-0.47,0.57-1.03,1.02-1.62,1.4c1.38,1.07,2,2.38,2.27,3.46c1.67,6.6-7.01,16.35-7.98,17.44
			c-7.48,8.19-16.38,14.87-26.5,19.87c-10.9,5.39-22.63,8.51-34.91,9.3c-2.63,0.18-5.3,0.25-7.9,0.24
			c-13.71-0.09-26.89-2.8-39.18-8.02c-10.35-4.41-19.84-10.5-28.18-18.1c-14.05-12.79-22.68-28.98-27.19-51.02
			c-5.69-30.43,1.69-60.7,20.75-85.24c18.49-23.81,46.17-39.11,74.01-40.91c3.01-0.19,6.07-0.29,9.07-0.27
			c22.37,0.15,43.77,6.42,58.68,17.23c2.89,2.06,7.91,6.38,9.48,11.94c1.4,5.06,2.29,26.21-1.93,33.01
			c-0.24,0.4-0.51,0.73-0.78,1.03c0.53,0.47,1.07,0.95,1.51,1.49c0.36-0.4,0.73-0.85,1.07-1.41c4.77-7.69,3.62-29.51,2.17-34.69
			c-1.72-6.19-7.16-10.87-10.26-13.11c-15.27-11.06-37.11-17.46-59.92-17.61c-3.06-0.02-6.15,0.06-9.21,0.28
			c-28.45,1.83-56.7,17.43-75.56,41.71c-19.43,25.02-26.95,55.9-21.14,86.96c4.59,22.51,13.44,39.08,27.83,52.17
			c8.52,7.75,18.2,13.96,28.77,18.47c12.55,5.36,26,8.1,40,8.19c2.66,0.02,5.37-0.06,8.07-0.24c12.54-0.8,24.54-4,35.69-9.51
			c10.36-5.11,19.49-11.96,27.13-20.32c1.75-1.92,10.38-11.88,8.48-19.39C463.57,455.19,462.64,453.73,461.32,452.58z"/>
		<path class="st3" d="M459.41,363.95c-0.73,0.79-1.56,1.29-2.52,1.48c-0.4,0.08-0.82,0.11-1.24,0.11
			c-6.55-0.04-11.46-9.58-16.36-20.2c-1.01-2.23-1.97-4.33-2.49-5.07c-8.03-11.47-24.44-20.33-39.92-21.54
			c-1.83-0.15-3.64-0.22-5.41-0.23c-22.06-0.15-35.76,10.27-44.14,18.12c-10.85,10.15-18.68,22.44-23.31,36.51
			c-5.18,15.72-6.14,33.22-2.86,52.03c6.97,34.53,27.69,55.84,56.81,58.46c2.86,0.25,5.69,0.39,8.43,0.41
			c20.65,0.14,38.09-6.66,51.81-20.22c0.33-0.31,0.68-0.68,1.06-1.04c4.18-4.16,10.48-10.47,15.9-10.43c0.73,0,1.44,0.12,2.09,0.35
			c1,0.33,1.8,0.8,2.44,1.29c0.59-0.39,1.15-0.83,1.62-1.4c-0.92-0.8-2.08-1.45-3.37-1.88c-0.87-0.33-1.81-0.5-2.77-0.5
			c-6.3-0.04-12.98,6.65-17.4,11.08l-0.08,0.06c-0.33,0.33-0.67,0.68-0.97,0.97c-13.32,13.15-30.25,19.75-50.31,19.62
			c-2.67-0.02-5.46-0.16-8.26-0.42c-28.12-2.53-48.13-23.24-54.92-56.76c-3.2-18.44-2.27-35.57,2.79-50.94
			c4.52-13.76,12.16-25.75,22.75-35.63c8.11-7.62,21.38-17.72,42.68-17.58c1.72,0.02,3.48,0.09,5.26,0.25
			c14.89,1.15,30.66,9.66,38.34,20.64c0.43,0.59,1.47,2.88,2.31,4.73c5.18,11.27,10.47,21.39,18.27,21.45
			c0.56,0,1.12-0.06,1.64-0.15c1.02-0.19,2.38-0.71,3.63-2.06C460.48,364.9,459.94,364.43,459.41,363.95z"/>
		<path class="st3" d="M457.26,452.7c-0.65-0.24-1.36-0.35-2.09-0.35c-5.42-0.04-11.72,6.27-15.9,10.43
			c-0.38,0.36-0.72,0.73-1.06,1.04c-13.71,13.56-31.15,20.36-51.81,20.22c-2.74-0.02-5.57-0.16-8.43-0.41
			c-29.12-2.62-49.84-23.93-56.81-58.46c-3.28-18.81-2.32-36.31,2.86-52.03c4.63-14.07,12.47-26.36,23.31-36.51
			c8.38-7.85,22.08-18.27,44.14-18.12c1.77,0.01,3.58,0.08,5.41,0.23c15.47,1.2,31.88,10.06,39.92,21.54
			c0.52,0.75,1.48,2.85,2.49,5.07c4.89,10.62,9.81,20.15,16.36,20.2c0.43,0,0.84-0.02,1.24-0.11c1.29-0.24,2.4-1.08,3.3-2.51
			c4.22-6.81,3.33-27.95,1.93-33.01c-1.56-5.56-6.59-9.88-9.48-11.94c-14.91-10.81-36.31-17.09-58.68-17.23
			c-3-0.02-6.06,0.08-9.07,0.27c-27.84,1.8-55.52,17.1-74.01,40.91c-19.06,24.54-26.44,54.81-20.75,85.24
			c4.5,22.04,13.14,38.23,27.19,51.02c8.34,7.59,17.83,13.68,28.18,18.1c12.29,5.23,25.46,7.93,39.18,8.02
			c2.6,0.02,5.27-0.06,7.9-0.24c12.28-0.79,24.01-3.91,34.91-9.3c10.12-5,19.02-11.68,26.5-19.87c0.98-1.08,9.66-10.84,7.98-17.44
			C461.56,455.87,460.42,453.8,457.26,452.7z M452.41,473.49c-14.01,15.33-35,26.82-59.96,28.44
			c-32.82,2.15-57.78-10.84-73.71-25.33c-13.74-12.49-22.08-28.05-26.54-49.86c-12.2-65.18,38.46-120.1,92.84-123.63
			c25.76-1.67,50.04,4.74,66.37,16.56c3.52,2.55,7.44,6.43,8.66,10.81c1.64,5.87,2.08,31.8-3.58,32.87
			c-8.01,1.53-15.35-20.52-17.97-24.29c-8.66-12.38-25.96-21.22-41.49-22.43c-24.08-1.89-39.54,7.57-51.16,18.46
			c-20.87,19.54-33.85,50.03-26.79,90.5c6.34,31.41,25.32,57.14,58.7,60.14c29.15,2.64,48.54-7.19,61.92-20.42
			c4.04-3.98,11.83-12.36,16.85-10.62C465.78,457.88,454.12,471.59,452.41,473.49z"/>
		<g>
			<path class="st3" d="M420.79,245.45l-0.99,0.21l-0.78-0.65c-4.85-4.04-3.94-13.89-3.2-21.8c0.1-1.09,0.19-2.11,0.25-3.02
				l0.01-0.05v-0.01c0.38-3.73,2.54-5.59,4.27-7.07l0.18-0.16c10.47-8.95,33.52-14.86,57.32-14.7c12.25,0.08,23.46,1.82,32.4,5.01
				c10.38,3.72,17.43,9.22,20.93,16.37c7.22,11.41,9.1,22.8,5.58,33.85c-5.13,16.09-20.95,28.62-35.89,35.99
				c1.14,0.26,2.24,0.55,3.33,0.84c1.19-0.34,2.35-0.75,3.46-1.21c-0.32-0.1-0.67-0.2-1.01-0.3c10.31-5.81,26.61-17.4,32.11-34.67
				c3.72-11.64,1.78-23.59-5.74-35.54c-3.75-7.6-11.18-13.43-22.06-17.32c-9.17-3.27-20.6-5.04-33.1-5.13
				c-24.3-0.16-47.88,5.95-58.7,15.2l-0.2,0.17c-1.8,1.54-4.53,3.88-4.99,8.46v0.04v0.03v0.02l-0.01,0.01
				c-0.06,0.89-0.15,1.91-0.25,2.98c-0.78,8.42-1.74,18.88,3.95,23.62l0.79,0.66l0.77,0.65l1.02-0.2l0.99-0.22
				c0.06-0.01,0.09-0.02,0.15-0.04c0.01-0.73,0.01-1.45,0.01-2.17C421.19,245.36,420.99,245.41,420.79,245.45z"/>
			<path class="st3" d="M459.61,292.46c-0.6-2.79-0.27-5.15,0.96-7.02c2.27-3.47,7.03-4.43,11.63-5.35c1.95-0.4,3.97-0.79,5.66-1.38
				c6.51-2.25,13.29-6.96,18.57-12.96c5.56-6.29,9.08-13.51,9.96-20.3c1.26-9.84-3.05-18.38-12.5-24.65
				c-4.45-2.86-11.3-4.46-19.25-4.51c-7.58-0.05-15.18,1.34-20.32,3.71c-7.09,3.39-12.6,6.84-16.32,10.27
				c-1.53,1.42-2.86,3.2-4.27,5.08c-2.98,4-6.36,8.48-12.36,9.96c0,0.72,0,1.45-0.01,2.17c7.1-1.51,10.95-6.69,14.08-10.87
				c1.35-1.8,2.62-3.51,4.01-4.79c3.57-3.28,8.88-6.63,15.77-9.9c4.87-2.26,12.14-3.57,19.42-3.52c7.55,0.05,13.98,1.53,18.08,4.15
				c8.73,5.82,12.74,13.64,11.58,22.64c-0.83,6.37-4.19,13.16-9.45,19.16c-5.05,5.73-11.49,10.23-17.67,12.35
				c-1.56,0.54-3.51,0.94-5.41,1.32c-4.8,0.96-10.2,2.05-12.96,6.25c-1.56,2.36-1.98,5.27-1.27,8.63c0.1,0.45,0.24,0.89,0.41,1.32
				c0.59-0.41,1.2-0.73,1.93-0.9C459.77,293.04,459.67,292.74,459.61,292.46z"/>
			<path class="st3" d="M513.5,323.15c-4.15-5.76-14.27-12.92-23.52-16.66c-1.96-0.77-5.12-1.65-8.44-2.59
				c-11.44-3.17-19.82-5.83-21.67-10.58c-0.72,0.17-1.34,0.49-1.93,0.9c2.25,5.56,10.71,8.29,23.02,11.7l0.06,0.04
				c3.24,0.9,6.31,1.74,8.15,2.49c8.94,3.61,18.64,10.47,22.59,15.93c4.82,6.68,6.72,15.14,5.35,23.8
				c-0.04,0.18-0.07,0.37-0.11,0.54c0.73,0.01,1.44,0.01,2.15,0.02c0-0.08,0.01-0.14,0.04-0.2
				C520.67,339.29,518.65,330.3,513.5,323.15z"/>
			<path class="st3" d="M545.74,317.26c-5.58-9.47-16.63-21.67-38.09-28.22c-1.12,0.46-2.28,0.87-3.46,1.21
				c22.51,6.05,33.97,18.29,39.72,28.09c2.93,4.99,9.5,18.31,7.44,34.29c-4.2,32.41-41.5,46.7-76.65,46.46l0,0
				c-14.6-0.11-28.73-2.62-40.83-7.27c-13.03-5-23.01-12.3-28.86-21.11c-3.5-5.23-9.89-19.09-6.07-26.13
				c1.01-1.88,3.2-4.12,7.86-4.08c0.54,0,1.12,0.03,1.71,0.12c5.26,0.55,9.51,8.06,13.34,16.08c0.32,0.68,0.67,1.44,0.8,1.64
				c3.46,4.68,10.75,12.05,15.42,14.98c8.38,5.26,18.76,8.09,30.05,8.17c14.28,0.09,28.79-4.25,38.78-11.62
				c6.35-4.71,10.81-12.39,12.26-21.13c-0.71,0-1.42-0.01-2.15-0.02c-1.4,8.06-5.53,15.13-11.37,19.45
				c-9.64,7.09-23.65,11.3-37.5,11.21c-10.88-0.07-20.9-2.78-28.94-7.83c-4.41-2.79-11.39-9.82-14.75-14.35
				c-0.13-0.25-0.47-0.98-0.7-1.43c-4.72-9.9-9.08-16.64-15-17.28c-0.67-0.08-1.32-0.12-1.93-0.12c-6.02-0.04-8.69,3.25-9.75,5.2
				c-4.29,7.97,2.3,22.52,6.16,28.31c6.12,9.17,16.44,16.76,29.88,21.91c12.33,4.73,26.7,7.29,41.57,7.39l0,0
				c36.06,0.24,74.39-14.59,78.75-48.28C555.6,336.27,548.77,322.44,545.74,317.26z"/>
		</g>
		<path class="st3" d="M461.68,292.02c-2.07-9.71,9.43-8.75,16.87-11.31c22.74-7.8,45.52-42.36,16.53-61.67
			c-10.68-6.84-31.1-5.84-41.63-0.96c-6.15,2.93-12.38,6.52-16.86,10.64c-5.18,4.77-7.91,12.95-16.22,14.67
			c-4.59-3.85-2.68-16.24-2.19-23.05c0.31-2.99,1.98-4.32,3.73-5.81c20.88-17.84,93.83-22.03,107.42,6.09
			c21.33,33.55-10.57,58.54-32.68,68.44c2.63,0.5,5.42,1.14,8.23,1.38c-1.3-0.34-2.63-0.7-4-1.02c14.94-7.36,30.76-19.9,35.89-35.99
			c3.52-11.05,1.64-22.43-5.58-33.85c-3.5-7.15-10.55-12.65-20.93-16.37c-8.94-3.19-20.14-4.93-32.4-5.01
			c-23.8-0.16-46.85,5.75-57.32,14.7l-0.18,0.16c-1.74,1.48-3.89,3.34-4.27,7.07v0.01l-0.01,0.05c-0.06,0.9-0.15,1.93-0.25,3.02
			c-0.74,7.91-1.65,17.76,3.2,21.8l0.78,0.65l0.99-0.21c6.39-1.32,9.87-5.98,12.95-10.1c1.41-1.89,2.74-3.66,4.27-5.08
			c3.73-3.42,9.23-6.88,16.32-10.27c5.13-2.38,12.74-3.77,20.32-3.71c7.95,0.05,14.8,1.66,19.25,4.51
			c9.45,6.28,13.76,14.81,12.5,24.65c-0.89,6.79-4.41,14.01-9.96,20.3c-5.28,6-12.06,10.71-18.57,12.96
			c-1.69,0.59-3.71,0.98-5.66,1.38c-4.6,0.92-9.35,1.88-11.63,5.35c-1.23,1.88-1.56,4.23-0.96,7.02c0.09,0.4,0.23,0.79,0.4,1.17
			c0.72-0.13,1.46-0.27,2.18-0.39C461.94,292.83,461.77,292.43,461.68,292.02z"/>
		<path class="st3" d="M543.91,318.34c-5.69-9.71-16.99-21.78-39.05-27.91c-2.82-0.25-5.6-0.88-8.23-1.38
			c-0.92,0.42-1.83,0.8-2.7,1.17c23.92,3.91,39.82,14.97,48.16,29.2c4.64,7.92,8.84,19.96,7.17,32.94
			c-7.12,54.95-115.83,57.27-142.5,17.19c-4.67-7.02-13.55-28.52,1.53-26.86c5.91,0.66,11.77,15.7,12.63,16.88
			c3.37,4.56,10.88,12.34,16.01,15.55c22.02,13.86,53.68,9.4,71.23-3.53c14.03-10.38,18.6-33.64,7.03-49.67
			c-4.62-6.42-15.4-13.73-24.44-17.39c-6.78-2.75-25.06-5.85-28.57-11.3c-0.72,0.12-1.46,0.26-2.18,0.39
			c2.09,4.56,10.33,7.18,21.53,10.27c3.32,0.94,6.48,1.82,8.44,2.59c9.25,3.74,19.37,10.9,23.52,16.66
			c5.15,7.14,7.18,16.14,5.71,25.39c-1.42,8.82-5.89,16.59-12.29,21.33c-9.99,7.37-24.5,11.71-38.78,11.62
			c-11.29-0.07-21.68-2.9-30.05-8.17c-4.67-2.93-11.96-10.3-15.42-14.98c-0.13-0.21-0.48-0.97-0.8-1.64
			c-3.82-8.03-8.08-15.53-13.34-16.08c-0.59-0.1-1.17-0.12-1.71-0.12c-4.66-0.03-6.85,2.21-7.86,4.08
			c-3.82,7.04,2.56,20.9,6.07,26.13c5.85,8.81,15.83,16.12,28.86,21.11c12.1,4.65,26.22,7.16,40.83,7.27l0,0
			c35.15,0.24,72.45-14.05,76.65-46.46C553.41,336.65,546.85,323.34,543.91,318.34z"/>
		<path class="st4" d="M522.01,59.32c-32.42-0.22-65.99-5.44-99.8-15.55c-33.91,9.65-67.53,14.44-99.98,14.22
			c-46.18-0.31-75.89-10.55-84.35-13.89c-77.19,89.48-80.46,182.22-69.51,244.46c6.54,37.08,20.22,74.67,39.57,108.69
			c17.87,31.39,40.15,59.3,64.45,80.74c33.91,29.85,72.02,48.75,98.03,59.35c25.66,10.47,44.52,15.04,48.42,15.94
			c3.92-0.85,22.88-5.19,48.65-15.29c26.13-10.26,64.5-28.66,98.8-58.05c24.59-21.11,47.25-48.73,65.52-79.87
			c19.82-33.76,34-71.16,41.01-108.15c11.79-62.09,9.75-154.87-66.25-245.36C598.04,49.78,568.2,59.63,522.01,59.32z"/>
		<g>
			<path class="st3" d="M418.61,557.86c-0.8-0.15-82.75-17.92-149.2-76.5c-24.69-21.74-47.3-50.04-65.41-81.86
				c-19.61-34.46-33.47-72.55-40.09-110.14c-11.2-63.65-7.77-158.72,72.22-250.15l0.49-0.56l0.68,0.31
				c0.32,0.15,32.77,14.52,87.04,14.52c31.44,0,64.04-4.75,96.9-14.12v-0.3l2,0.11l0,0.2c34.2,10.25,68.12,15.45,100.84,15.45
				c51.83,0,82.81-13.25,83.12-13.38l0.68-0.3l0.48,0.56c78.76,92.48,80.93,187.59,68.88,251.09c-7.12,37.5-21.48,75.39-41.55,109.6
				c-18.53,31.58-41.51,59.58-66.48,80.99c-67.33,57.74-149.42,74.36-150.22,74.5l-0.18,0.03L418.61,557.86z M238.17,45.29
				c-76.54,89.07-79.69,181.33-68.82,243.1c6.52,36.98,20.16,74.45,39.45,108.37c17.81,31.29,40.02,59.12,64.24,80.48
				c33.81,29.76,71.82,48.61,97.75,59.18c24.54,10.01,42.72,14.6,48.05,15.85c4.07-0.89,22.95-5.28,48.28-15.2
				c26.08-10.24,64.34-28.59,98.51-57.88c24.53-21.06,47.11-48.59,65.3-79.62c19.77-33.69,33.91-70.97,40.89-107.83
				c11.7-61.61,9.78-153.9-65.58-243.99c-8.82,3.27-37.89,12.59-82.11,12.59c-0.7,0-1.41,0-2.12-0.01
				c-32.43-0.22-66.01-5.43-99.8-15.51C389.05,54.23,356.12,59,324.33,59c-0.7,0-1.41,0-2.11-0.01
				C276.88,58.69,247.16,48.76,238.17,45.29z"/>
			<path class="st3" d="M236.88,39.87c0,0,32.29,14.61,87.46,14.61c27.38,0,60.4-3.6,97.9-14.37v0l0.02,0v0
				c39.26,11.84,73.66,15.7,101.83,15.7c52.64,0,83.52-13.47,83.52-13.47c138.78,162.95,57.33,357.64-39.04,440.27
				c-67.06,57.51-149.18,74.18-149.74,74.28l-0.02,0c-0.57-0.11-82.47-17.87-148.73-76.27C174.78,396.72,95.95,200.96,236.88,39.87
				 M324.34,58c-0.7,0-1.41,0-2.11-0.01c-46.18-0.31-75.89-10.55-84.35-13.89c-77.19,89.48-80.46,182.22-69.51,244.46
				c6.54,37.08,20.22,74.67,39.57,108.69c17.87,31.39,40.15,59.3,64.45,80.74c33.91,29.85,72.02,48.75,98.03,59.35
				c25.66,10.47,44.52,15.04,48.42,15.94c3.92-0.85,22.88-5.19,48.65-15.29c26.13-10.26,64.5-28.66,98.8-58.05
				c24.59-21.11,47.25-48.73,65.52-79.87c19.82-33.76,34-71.16,41.01-108.15c11.79-62.09,9.75-154.87-66.25-245.36
				c-8.37,3.18-37.43,12.77-82.42,12.77c-0.7,0-1.41,0-2.12-0.01c-32.42-0.22-65.99-5.44-99.8-15.55
				C389.03,53.22,356.13,58,324.34,58 M236.36,37.44l-0.98,1.12c-80.25,91.72-83.69,187.11-72.45,250.98
				c6.63,37.7,20.54,75.9,40.2,110.46c18.16,31.91,40.85,60.31,65.62,82.12c66.65,58.75,148.88,76.58,149.68,76.73l0.36,0.07
				l0.36-0.06c0.83-0.15,83.21-16.83,150.73-74.73c25.05-21.48,48.11-49.57,66.7-81.24c20.12-34.3,34.53-72.31,41.67-109.92
				c12.09-63.72,9.92-159.14-69.1-251.92l-0.96-1.13l-1.36,0.59c-0.31,0.13-31.17,13.3-82.72,13.3c-32.39,0-65.97-5.11-99.83-15.19
				v-0.4l-1.89-0.11l-2.11-0.12l0,0.6c-32.53,9.21-64.79,13.88-95.91,13.88c-54.02,0-86.31-14.28-86.63-14.43L236.36,37.44
				L236.36,37.44z M324.34,60c31.79,0,64.71-4.76,97.86-14.14c33.79,10.05,67.36,15.25,99.8,15.46c0.71,0,1.43,0.01,2.13,0.01
				c43.32,0,72.19-8.93,81.79-12.41c74.67,89.62,76.55,181.35,64.91,242.62c-6.96,36.75-21.05,73.93-40.77,107.51
				c-18.14,30.94-40.65,58.38-65.09,79.37c-34.07,29.2-72.22,47.5-98.23,57.71c-24.82,9.73-43.43,14.12-47.91,15.11
				c-5.57-1.31-23.53-5.9-47.67-15.75c-25.86-10.54-63.76-29.33-97.47-59c-24.13-21.29-46.27-49.03-64.03-80.23
				c-19.23-33.82-32.83-71.18-39.33-108.05c-10.81-61.43-7.69-153.13,68.14-241.74c9.77,3.69,39.29,13.22,83.74,13.52
				C322.92,60,323.63,60,324.34,60L324.34,60z"/>
		</g>
		<path d="M613.4,37.39l-3.67-4.27l-5.16,2.23c-0.3,0.13-31.1,13.17-82.47,12.83c-31.69-0.21-64.55-5.38-97.65-15.38l-2.16-0.65
			l-2.15,0.62c-33.23,9.56-66.16,14.29-97.84,14.08c-51.37-0.34-81.99-13.79-82.3-13.93l-5.13-2.31l-3.73,4.24
			c-81.71,93.39-85.21,190.57-73.75,255.65c6.75,38.32,20.87,77.14,40.85,112.27c18.46,32.45,41.54,61.34,66.76,83.57
			c66.98,59,148.72,77.25,152.18,78l1.57,0.33l1.56-0.31c3.46-0.71,85.44-17.86,153.2-75.97c25.51-21.89,48.99-50.48,67.87-82.68
			c20.47-34.86,35.1-73.49,42.34-111.71C696.07,229.07,693.86,131.86,613.4,37.39z M568.56,482.6
			c-67.06,57.51-149.18,74.18-149.74,74.28l0,0l-0.02,0l0,0l0,0c-0.57-0.11-82.47-17.87-148.73-76.27
			c-95.28-83.9-174.12-279.66-33.18-440.74c0,0,72.31,32.71,185.35,0.24v0l0,0l0.02,0v0c112.6,33.97,185.35,2.23,185.35,2.23
			C746.38,205.28,664.93,399.98,568.56,482.6z"/>
		<path class="st0" d="M456.56,454.69c-5.02-1.74-12.81,6.64-16.85,10.62c-13.38,13.22-32.77,23.06-61.92,20.42
			c-33.38-3-52.36-28.73-58.7-60.14c-7.06-40.47,5.92-70.96,26.79-90.5c11.63-10.89,27.08-20.35,51.16-18.46
			c15.53,1.21,32.83,10.04,41.49,22.43c2.62,3.77,9.96,25.82,17.97,24.29c5.65-1.07,5.22-27,3.58-32.87
			c-1.22-4.38-5.14-8.25-8.66-10.81c-16.34-11.82-40.61-18.24-66.37-16.56c-54.38,3.53-105.04,58.45-92.84,123.63
			c4.46,21.82,12.79,37.37,26.54,49.86c15.93,14.49,40.89,27.48,73.71,25.33c24.97-1.62,45.95-13.11,59.96-28.44
			C454.12,471.59,465.78,457.88,456.56,454.69z"/>
		<path class="st0" d="M493.93,290.22c22.06-9,57.61-34.66,35.38-69.61c-13.58-28.12-86.54-23.93-107.42-6.09
			c-1.74,1.49-3.42,2.82-3.73,5.81c-0.49,6.82-2.4,19.2,2.19,23.05c8.31-1.71,11.04-9.9,16.22-14.67
			c4.49-4.12,10.71-7.7,16.86-10.64c10.53-4.88,30.95-5.88,41.63,0.96c28.99,19.31,6.21,53.87-16.53,61.67
			c-7.43,2.55-18.94,1.59-16.87,11.31c1.32,6.22,21.82,9.58,29.08,12.52c9.04,3.66,19.82,10.96,24.44,17.39
			c11.57,16.03,7,39.28-7.03,49.67c-17.55,12.93-49.21,17.39-71.23,3.53c-5.13-3.21-12.65-10.99-16.01-15.55
			c-0.86-1.18-6.72-16.21-12.63-16.88c-15.08-1.66-6.2,19.84-1.53,26.86c26.67,40.08,135.38,37.76,142.5-17.19
			c1.67-12.99-2.53-25.03-7.17-32.94C533.75,305.18,517.85,294.12,493.93,290.22z"/>
		<path class="st0" d="M457.95,245.81c-5.02-1.75-12.82,6.65-16.86,10.63c-13.37,13.19-32.77,23.02-61.92,20.4
			c-33.39-2.99-52.36-28.72-58.7-60.16c-7.06-40.46,5.92-70.94,26.79-90.48c11.63-10.88,27.08-20.35,51.15-18.47
			c15.54,1.21,32.83,10.05,41.5,22.43c2.62,3.75,9.96,25.83,17.97,24.3c5.65-1.08,5.21-27,3.58-32.88
			c-1.22-4.39-5.14-8.26-8.66-10.81c-16.34-11.83-40.61-18.24-66.37-16.56c-54.38,3.54-105.04,58.43-92.84,123.63
			c4.45,21.79,12.79,37.37,26.54,49.87c15.93,14.48,40.88,27.48,73.7,25.34c24.97-1.64,45.96-13.13,59.96-28.48
			C455.51,262.71,467.17,248.99,457.95,245.81z"/>
	</g>
</g>
</svg>
